<svg width="90" height="34" viewBox="0 0 90 34" fill="none" xmlns="http://www.w3.org/2000/svg">
<path d="M89.6808 17.2161C89.2808 14.8181 86.2318 13.1911 68.3728 9.31911C67.0908 9.04111 66.0308 8.81111 65.3848 8.65611C61.0428 5.3411 57.4228 3.25811 54.0228 2.11611C47.4598 -0.111892 23.9988 -1.08589 17.5358 2.82011C14.5888 4.58811 12.0468 6.3881 9.78383 8.3091C7.66683 8.4811 5.57683 8.65511 3.51083 8.85411C1.78183 8.99111 0.859833 10.6891 0.326833 14.7121C-0.141167 18.2411 -0.514168 24.3081 2.24483 25.2941C5.04583 26.2781 8.06283 27.1561 11.2118 27.9211C12.3078 31.3471 15.5198 33.8351 19.3038 33.8351C22.2358 33.8351 24.8248 32.3421 26.3528 30.0771C36.0038 29.9231 45.7518 29.9451 55.1928 29.9691C59.0838 29.9791 62.9758 29.9881 66.8698 29.9851C68.3948 32.3001 71.0198 33.8351 74.0008 33.8351C77.0018 33.8351 79.6378 32.2671 81.1498 29.9111C83.0038 29.8881 84.6358 29.8591 86.5668 29.8221C87.3628 29.8101 88.0988 29.4431 88.6388 28.7911C90.8638 26.1011 89.6938 17.2861 89.6808 17.2161ZM19.3038 30.0051C16.7298 30.0051 14.6358 27.9101 14.6358 25.3361C14.6358 22.7621 16.7298 20.6681 19.3038 20.6681C21.8778 20.6681 23.9718 22.7621 23.9718 25.3361C23.9728 27.9101 21.8778 30.0051 19.3038 30.0051ZM74.0008 30.0051C71.4098 30.0051 69.3018 27.9101 69.3018 25.3361C69.3018 22.7621 71.4098 20.6681 74.0008 20.6681C76.5748 20.6681 78.6688 22.7621 78.6688 25.3361C78.6688 27.9101 76.5748 30.0051 74.0008 30.0051ZM85.8248 26.0061C84.6508 26.0281 83.5728 26.0471 82.4608 26.0641C82.4808 25.8241 82.4978 25.5831 82.4978 25.3371C82.4978 20.6521 78.6858 16.8401 74.0008 16.8401C69.2988 16.8401 65.4728 20.6521 65.4728 25.3371C65.4728 25.6131 65.4888 25.8851 65.5148 26.1541C62.0758 26.1541 58.6388 26.1491 55.2028 26.1401C46.2208 26.1171 36.9588 26.0991 27.7528 26.2291C27.7838 25.9361 27.8008 25.6381 27.8008 25.3371C27.8008 20.6521 23.9888 16.8401 19.3038 16.8401C15.1048 16.8401 11.6168 19.9051 10.9358 23.9131C8.53583 23.3001 6.23083 22.6171 4.06183 21.8721C3.60383 20.1271 3.96083 14.5231 4.63383 12.5931C6.65083 12.4051 8.66983 12.2401 10.7138 12.0741C11.1218 12.0411 11.5088 11.8791 11.8168 11.6091C14.0278 9.68211 16.5418 7.88011 19.5108 6.10011C24.2308 3.24611 45.9478 3.41811 52.7968 5.74311C55.8708 6.77611 59.2288 8.74311 63.3648 11.9331C63.5658 12.0881 63.7968 12.2021 64.0428 12.2681C64.6838 12.4381 65.8908 12.7001 67.5608 13.0621C71.6348 13.9451 83.7888 16.5811 85.9618 18.2271C86.2288 20.2211 86.2828 24.4941 85.8248 26.0061Z" fill="#31708B"/>
</svg>
