<svg width="256" height="30" viewBox="0 0 256 30" fill="none" xmlns="http://www.w3.org/2000/svg">
<path d="M11.704 25.28C9.72533 25.28 7.93333 24.8507 6.328 23.992C4.74133 23.1147 3.49067 21.9107 2.576 20.38C1.68 18.8493 1.232 17.1227 1.232 15.2C1.232 13.2773 1.68933 11.5507 2.604 10.02C3.51867 8.48933 4.76933 7.29467 6.356 6.436C7.96133 5.55867 9.75333 5.12 11.732 5.12C13.3373 5.12 14.8027 5.4 16.128 5.96C17.4533 6.52 18.5733 7.332 19.488 8.396L17.136 10.608C15.7173 9.07733 13.972 8.312 11.9 8.312C10.556 8.312 9.352 8.61067 8.288 9.208C7.224 9.78667 6.39333 10.5987 5.796 11.644C5.19867 12.6893 4.9 13.8747 4.9 15.2C4.9 16.5253 5.19867 17.7107 5.796 18.756C6.39333 19.8013 7.224 20.6227 8.288 21.22C9.352 21.7987 10.556 22.088 11.9 22.088C13.972 22.088 15.7173 21.3133 17.136 19.764L19.488 22.004C18.5733 23.068 17.444 23.88 16.1 24.44C14.7747 25 13.3093 25.28 11.704 25.28ZM27.375 9.88C29.5777 9.88 31.2577 10.412 32.415 11.476C33.591 12.5213 34.179 14.108 34.179 16.236V25H30.875V23.18C30.4457 23.8333 29.8297 24.3373 29.027 24.692C28.243 25.028 27.291 25.196 26.171 25.196C25.051 25.196 24.071 25.0093 23.231 24.636C22.391 24.244 21.7377 23.712 21.271 23.04C20.823 22.3493 20.599 21.5747 20.599 20.716C20.599 19.372 21.0937 18.2987 22.083 17.496C23.091 16.6747 24.6684 16.264 26.815 16.264H30.679V16.04C30.679 14.9947 30.3617 14.192 29.727 13.632C29.111 13.072 28.187 12.792 26.955 12.792C26.115 12.792 25.2844 12.9227 24.463 13.184C23.6604 13.4453 22.979 13.8093 22.419 14.276L21.047 11.728C21.831 11.1307 22.7737 10.6733 23.875 10.356C24.9764 10.0387 26.143 9.88 27.375 9.88ZM26.899 22.648C27.7764 22.648 28.551 22.452 29.223 22.06C29.9137 21.6493 30.399 21.0707 30.679 20.324V18.588H27.067C25.051 18.588 24.043 19.2507 24.043 20.576C24.043 21.2107 24.295 21.7147 24.799 22.088C25.303 22.4613 26.003 22.648 26.899 22.648ZM41.1628 12.232C42.1708 10.664 43.9442 9.88 46.4828 9.88V13.212C46.1842 13.156 45.9135 13.128 45.6708 13.128C44.3082 13.128 43.2442 13.5293 42.4788 14.332C41.7135 15.116 41.3308 16.2547 41.3308 17.748V25H37.8308V10.048H41.1628V12.232ZM68.8069 25L64.8029 19.26C64.6349 19.2787 64.3829 19.288 64.0469 19.288H59.6229V25H55.9829V5.4H64.0469C65.7456 5.4 67.2203 5.68 68.4709 6.24C69.7403 6.8 70.7109 7.60267 71.3829 8.648C72.0549 9.69333 72.3909 10.9347 72.3909 12.372C72.3909 13.8467 72.0269 15.116 71.2989 16.18C70.5896 17.244 69.5629 18.0373 68.2189 18.56L72.7269 25H68.8069ZM68.7229 12.372C68.7229 11.1213 68.3123 10.16 67.4909 9.488C66.6696 8.816 65.4656 8.48 63.8789 8.48H59.6229V16.292H63.8789C65.4656 16.292 66.6696 15.956 67.4909 15.284C68.3123 14.5933 68.7229 13.6227 68.7229 12.372ZM89.3434 17.608C89.3434 17.8507 89.3247 18.196 89.2874 18.644H77.5554C77.7607 19.7453 78.2927 20.6227 79.1514 21.276C80.0287 21.9107 81.1114 22.228 82.3994 22.228C84.0421 22.228 85.3954 21.6867 86.4594 20.604L88.3354 22.76C87.6634 23.5627 86.8141 24.1693 85.7874 24.58C84.7607 24.9907 83.6034 25.196 82.3154 25.196C80.6727 25.196 79.2261 24.8693 77.9754 24.216C76.7247 23.5627 75.7541 22.6573 75.0634 21.5C74.3914 20.324 74.0554 18.9987 74.0554 17.524C74.0554 16.068 74.3821 14.7613 75.0354 13.604C75.7074 12.428 76.6314 11.5133 77.8074 10.86C78.9834 10.2067 80.3087 9.88 81.7834 9.88C83.2394 9.88 84.5367 10.2067 85.6754 10.86C86.8327 11.4947 87.7287 12.4 88.3634 13.576C89.0167 14.7333 89.3434 16.0773 89.3434 17.608ZM81.7834 12.68C80.6634 12.68 79.7114 13.016 78.9274 13.688C78.1621 14.3413 77.6954 15.2187 77.5274 16.32H86.0114C85.8621 15.2373 85.4047 14.36 84.6394 13.688C83.8741 13.016 82.9221 12.68 81.7834 12.68ZM100.349 9.88C102.235 9.88 103.747 10.4307 104.885 11.532C106.024 12.6333 106.593 14.2667 106.593 16.432V25H103.093V16.88C103.093 15.5733 102.785 14.5933 102.169 13.94C101.553 13.268 100.676 12.932 99.5374 12.932C98.2494 12.932 97.232 13.324 96.4854 14.108C95.7387 14.8733 95.3654 15.984 95.3654 17.44V25H91.8654V10.048H95.1974V11.98C95.776 11.2893 96.504 10.7667 97.3814 10.412C98.2587 10.0573 99.248 9.88 100.349 9.88ZM119.181 24.188C118.771 24.524 118.267 24.776 117.669 24.944C117.091 25.112 116.475 25.196 115.821 25.196C114.179 25.196 112.909 24.7667 112.013 23.908C111.117 23.0493 110.669 21.7987 110.669 20.156V12.96H108.205V10.16H110.669V6.744H114.169V10.16H118.173V12.96H114.169V20.072C114.169 20.8 114.347 21.36 114.701 21.752C115.056 22.1253 115.569 22.312 116.241 22.312C117.025 22.312 117.679 22.1067 118.201 21.696L119.181 24.188ZM126.933 9.88C129.135 9.88 130.815 10.412 131.973 11.476C133.149 12.5213 133.737 14.108 133.737 16.236V25H130.433V23.18C130.003 23.8333 129.387 24.3373 128.585 24.692C127.801 25.028 126.849 25.196 125.729 25.196C124.609 25.196 123.629 25.0093 122.789 24.636C121.949 24.244 121.295 23.712 120.829 23.04C120.381 22.3493 120.157 21.5747 120.157 20.716C120.157 19.372 120.651 18.2987 121.641 17.496C122.649 16.6747 124.226 16.264 126.373 16.264H130.237V16.04C130.237 14.9947 129.919 14.192 129.285 13.632C128.669 13.072 127.745 12.792 126.513 12.792C125.673 12.792 124.842 12.9227 124.021 13.184C123.218 13.4453 122.537 13.8093 121.977 14.276L120.605 11.728C121.389 11.1307 122.331 10.6733 123.433 10.356C124.534 10.0387 125.701 9.88 126.933 9.88ZM126.457 22.648C127.334 22.648 128.109 22.452 128.781 22.06C129.471 21.6493 129.957 21.0707 130.237 20.324V18.588H126.625C124.609 18.588 123.601 19.2507 123.601 20.576C123.601 21.2107 123.853 21.7147 124.357 22.088C124.861 22.4613 125.561 22.648 126.457 22.648ZM137.388 4.224H140.888V25H137.388V4.224ZM149.262 25.196C148.049 25.196 146.863 25.0373 145.706 24.72C144.549 24.4027 143.625 24.0013 142.934 23.516L144.278 20.856C144.95 21.304 145.753 21.668 146.686 21.948C147.638 22.2093 148.571 22.34 149.486 22.34C151.577 22.34 152.622 21.7893 152.622 20.688C152.622 20.1653 152.351 19.8013 151.81 19.596C151.287 19.3907 150.438 19.1947 149.262 19.008C148.03 18.8213 147.022 18.6067 146.238 18.364C145.473 18.1213 144.801 17.7013 144.222 17.104C143.662 16.488 143.382 15.6387 143.382 14.556C143.382 13.1373 143.97 12.008 145.146 11.168C146.341 10.3093 147.946 9.88 149.962 9.88C150.989 9.88 152.015 10.0013 153.042 10.244C154.069 10.468 154.909 10.776 155.562 11.168L154.218 13.828C152.949 13.0813 151.521 12.708 149.934 12.708C148.907 12.708 148.123 12.8667 147.582 13.184C147.059 13.4827 146.798 13.884 146.798 14.388C146.798 14.948 147.078 15.3493 147.638 15.592C148.217 15.816 149.103 16.0307 150.298 16.236C151.493 16.4227 152.473 16.6373 153.238 16.88C154.003 17.1227 154.657 17.5333 155.198 18.112C155.758 18.6907 156.038 19.512 156.038 20.576C156.038 21.976 155.431 23.096 154.218 23.936C153.005 24.776 151.353 25.196 149.262 25.196Z" fill="#31708B"/>
<path d="M217.812 16.5402C217.577 15.128 215.781 14.1699 205.264 11.8897C204.509 11.726 203.885 11.5906 203.505 11.4993C200.948 9.54713 198.816 8.32047 196.814 7.64796C192.949 6.33591 179.133 5.76233 175.327 8.06254C173.591 9.1037 172.094 10.1637 170.762 11.295C169.515 11.3962 168.284 11.4987 167.067 11.6159C166.049 11.6966 165.506 12.6965 165.192 15.0656C164.917 17.1438 164.697 20.7166 166.322 21.2973C167.971 21.8767 169.748 22.3938 171.603 22.8443C172.248 24.8618 174.139 26.327 176.368 26.327C178.094 26.327 179.619 25.4478 180.519 24.1139C186.202 24.0232 191.943 24.0362 197.503 24.0503C199.794 24.0562 202.086 24.0615 204.379 24.0597C205.277 25.423 206.823 26.327 208.578 26.327C210.346 26.327 211.898 25.4036 212.788 24.0162C213.88 24.0026 214.841 23.9855 215.978 23.9638C216.447 23.9567 216.881 23.7406 217.199 23.3566C218.509 21.7725 217.82 16.5814 217.812 16.5402ZM176.368 24.0715C174.852 24.0715 173.619 22.8378 173.619 21.322C173.619 19.8062 174.852 18.5731 176.368 18.5731C177.884 18.5731 179.117 19.8062 179.117 21.322C179.117 22.8378 177.884 24.0715 176.368 24.0715ZM208.578 24.0715C207.053 24.0715 205.811 22.8378 205.811 21.322C205.811 19.8062 207.053 18.5731 208.578 18.5731C210.094 18.5731 211.327 19.8062 211.327 21.322C211.327 22.8378 210.094 24.0715 208.578 24.0715ZM215.541 21.7166C214.85 21.7295 214.215 21.7407 213.56 21.7507C213.572 21.6094 213.582 21.4675 213.582 21.3226C213.582 18.5636 211.337 16.3188 208.578 16.3188C205.809 16.3188 203.556 18.5636 203.556 21.3226C203.556 21.4851 203.566 21.6453 203.581 21.8037C201.556 21.8037 199.532 21.8008 197.508 21.7955C192.219 21.7819 186.765 21.7713 181.343 21.8479C181.362 21.6753 181.372 21.4998 181.372 21.3226C181.372 18.5636 179.127 16.3188 176.368 16.3188C173.895 16.3188 171.841 18.1237 171.44 20.484C170.027 20.123 168.669 19.7208 167.392 19.2821C167.122 18.2545 167.332 14.9543 167.729 13.8178C168.917 13.7071 170.106 13.6099 171.309 13.5121C171.55 13.4927 171.777 13.3973 171.959 13.2383C173.261 12.1035 174.741 11.0423 176.49 9.9941C179.269 8.3134 192.058 8.41469 196.092 9.78386C197.902 10.3922 199.879 11.5505 202.315 13.4291C202.433 13.5204 202.569 13.5875 202.714 13.6264C203.092 13.7265 203.802 13.8808 204.786 14.094C207.185 14.6139 214.342 16.1663 215.622 17.1356C215.779 18.3098 215.811 20.8262 215.541 21.7166Z" fill="#31708B"/>
</svg>
